<svg width="553" height="646" viewBox="0 0 553 646" fill="none" xmlns="http://www.w3.org/2000/svg">
<path d="M322.033 645.473C265.413 645.473 219.513 618.971 219.513 586.278C219.513 553.586 265.413 527.083 322.033 527.083C378.653 527.083 424.552 553.586 424.552 586.278C424.552 618.971 378.653 645.473 322.033 645.473Z" fill="black" fill-opacity="0.1"/>
<path d="M110.201 532.93C53.5813 532.93 7.68169 506.428 7.68169 473.735C7.68169 441.043 53.5813 414.54 110.201 414.54C166.821 414.54 212.721 441.043 212.721 473.735C212.721 506.428 166.821 532.93 110.201 532.93Z" fill="black" fill-opacity="0.1"/>
<path d="M16.1004 121.907C18.0536 125.787 20.5396 129.375 23.4861 132.567C22.9905 130.459 22.7981 128.29 22.9146 126.127C22.9171 124.985 23.3511 123.886 24.1297 123.05C24.9082 122.215 25.9739 121.704 27.113 121.621C28.1021 121.621 27.8164 124.105 29.3111 127.776C31.2894 132.479 33.8172 134.524 34.6305 139.975C34.9189 142.012 35.9432 143.873 37.51 145.206C46.0387 152.306 62.5464 159.318 74.7239 163.407C74.7239 163.407 89.4732 145.316 95.9356 137.03C103.101 127.732 117.059 107.905 132.952 110.916C132.952 110.916 138.161 122.83 136.161 132.04C134.864 138.019 124.731 149.317 115.543 158.417C107.542 166.396 86.5497 188.641 77.6034 190.971C73.9326 191.938 67.2724 188.553 53.4243 179.519C46.5882 175.123 39.0267 170.155 30.8717 164.77C25.0556 160.661 19.5391 156.143 14.364 151.251C0.0982666 138.238 -1.96799 130.127 1.4171 122.544C6.93434 110.454 11.3305 112.675 16.1004 121.907Z" fill="#B16668"/>
<path d="M269.696 312.768C271.045 310.731 273.02 309.187 275.323 308.372C277.719 307.602 285.544 307.976 288.973 313.427C292.402 318.879 292.314 325.473 294.424 329.561C296.887 333.707 300.013 337.419 303.679 340.552C306.061 343.306 307.767 346.579 308.66 350.109C309.553 353.639 309.608 357.329 308.822 360.884C308.328 362.876 307.299 364.695 305.846 366.144C304.393 367.593 302.572 368.617 300.579 369.105L269.696 312.768Z" fill="#F0F0F0"/>
<path d="M271.762 311.449C274.291 310.807 276.946 310.854 279.45 311.585C281.955 312.315 284.219 313.703 286.006 315.604C289.193 319.494 289.105 325.231 290.864 329.781C291.944 332.062 293.384 334.155 295.128 335.98C296.996 338.354 299.26 340.376 300.931 342.97C302.218 345.013 303.196 347.235 303.833 349.564C304.642 352.113 304.999 354.784 304.888 357.455C304.734 359.55 304.117 361.584 303.084 363.412C302.05 365.24 300.624 366.817 298.909 368.028C295.348 370.446 290.468 370.864 287.786 366.995C286.898 365.536 286.161 363.989 285.588 362.379C284.473 359.278 282.771 356.42 280.577 353.961C278.378 352.026 276.664 349.564 274.378 347.784C274.004 347.498 273.653 347.19 273.279 346.949C269.168 344.245 264.948 341.871 264.486 340.2C264.025 338.53 263.783 319.67 263.783 319.67C266.003 319.121 268.245 312.57 271.762 311.449Z" fill="#263238"/>
<path d="M302.536 345.981C299 345.976 295.537 346.983 292.556 348.883C287.259 352.136 284.753 356.137 284.335 359.873C284.335 359.873 285.083 365.654 287.061 367.897C289.039 370.139 293.018 372.666 300.579 369.084C300.579 369.062 310.8 360.159 302.536 345.981Z" fill="#FAFAFA"/>
<path d="M256.837 319.033L267.827 319.582C269.456 319.558 271.071 319.895 272.553 320.571C275.631 321.758 279.609 330.661 276.268 333.035C275.752 333.317 275.322 333.733 275.024 334.241C274.726 334.748 274.571 335.326 274.576 335.914C272.553 334.727 269.036 336.266 266.992 337.695C266.188 338.206 265.589 338.984 265.3 339.893L261.914 339.453C259.488 339.236 257.043 339.384 254.661 339.893L256.837 319.033Z" fill="#B16668"/>
<path d="M87.0995 466.196C88.2205 466.459 88.3085 470.79 87.8689 472.021C86.8312 474.276 85.2161 476.217 83.1869 477.648C80.3319 479.799 78.0144 482.583 76.4167 485.781C73.5585 490.709 69.6756 494.967 65.0305 498.266C61.943 500.138 58.4971 501.342 54.9155 501.8C51.3338 502.259 47.6958 501.961 44.2365 500.926C36.8288 498.903 35.9716 496.991 35.9056 494.2L87.0995 466.196Z" fill="#F0F0F0"/>
<path d="M64.0192 451.029C62.8102 453.996 58.9416 466.657 51.3801 472.812C45.3573 477.714 37.2023 483.297 34.8943 489.012C32.5863 494.727 45.3133 497.804 50.6987 497.057C56.9853 496.31 65.2061 493.232 69.8881 488.111C73.1853 484.506 75.3834 480.132 77.7573 477.296C80.1313 474.461 85.3628 471.405 86.7476 468.042C87.4949 466.196 86.9674 461.997 86.242 458.458C85.5166 454.919 84.8572 451.622 83.7581 451.864L83.6483 453.842C82.2415 455.227 64.0192 451.029 64.0192 451.029Z" fill="#263238"/>
<path d="M61.7772 456.898C62.7443 454.018 63.7555 451.095 64.1511 449.182C64.9418 445.76 65.5435 442.296 65.9536 438.807C66.4152 434.411 67.8879 420.409 67.8879 420.409L87.0994 427.113C86.5498 431.356 85.6706 434.873 84.7913 440.038C84.1862 442.933 83.8405 445.875 83.7582 448.831C83.7582 450.04 83.7582 452.392 83.7582 453.601C83.7582 454.392 83.2087 454.722 82.6812 455.227C81.8928 456.098 81.294 457.124 80.9227 458.239C80.7324 458.863 80.3275 459.4 79.7796 459.755C79.3112 459.877 78.8193 459.877 78.3509 459.755C76.9001 459.755 74.68 459.404 73.9547 461.008C73.8662 460.264 73.6254 459.547 73.2472 458.9C72.869 458.253 72.3616 457.691 71.7566 457.249C69.5585 455.601 63.5356 452.699 61.7772 456.898Z" fill="#B16668"/>
<path d="M64.3708 492.463C63.5081 489.466 61.981 486.703 59.9032 484.378C57.8254 482.053 55.2502 480.226 52.3691 479.033C42.8514 475.516 39.818 479.736 38.4772 480.879C37.1363 482.022 30.6739 488.111 35.9054 494.2C40.2215 496.965 45.3049 498.287 50.4214 497.975C55.5379 497.663 60.4228 495.732 64.3708 492.463Z" fill="#FAFAFA"/>
<path d="M106.728 219.81C97.7822 243.813 78.1531 299.799 75.3175 319.077C72.482 338.354 66.5251 432.741 66.5251 432.741C68.3056 437.137 80.2193 438.741 86.0443 435.159C86.0443 435.159 101.431 390.757 104.245 376.315C106.26 365.98 106.133 355.342 103.871 345.058C103.871 345.058 134.93 287.754 147.196 265.267C147.196 265.267 159.659 329.671 165.198 339.717C169.594 347.784 172.144 352.905 190.652 351.191C209.16 349.476 258.749 339.651 258.749 339.651C261.167 337.453 263.475 323.715 258.903 318.901C243.719 316.955 228.425 315.986 213.117 315.999C206.412 316.417 199.974 318.777 194.587 322.791C194.587 322.791 202.786 272.631 203.379 255.661C203.965 242.305 201.523 228.99 196.235 216.711L106.728 219.81Z" fill="#37474F"/>
<path d="M147.261 265.267C147.261 265.267 134.073 262.453 126.094 254.276C129.012 259.932 133.23 264.813 138.403 268.52L107.981 337.123L147.261 265.267Z" fill="#263238"/>
<path d="M168.649 28.4212C170.96 25.3463 174.046 22.9391 177.59 21.4447C181.135 19.9504 185.012 19.4224 188.828 19.9145C204.544 21.629 209.27 31.0589 223.448 26.0253C234.768 21.9808 236.746 9.73731 232.702 0.461304C235.566 1.03265 238.229 2.3497 240.421 4.27944C242.613 6.20919 244.257 8.6833 245.187 11.4518C247.253 16.485 248.04 21.9512 247.48 27.3628C246.92 32.7744 245.03 37.9634 241.978 42.4671C235.383 52.0728 219.381 57.4362 209.446 55.9415C189.399 52.952 181.97 35.7629 173.881 39.0161L168.649 28.4212Z" fill="#263238"/>
<path d="M151.702 22.6621H145.107C140.235 22.6621 135.41 23.6219 130.908 25.4865C126.407 27.3512 122.316 30.0842 118.871 33.5296C115.425 36.9751 112.692 41.0654 110.828 45.567C108.963 50.0687 108.003 54.8936 108.003 59.7661C108.003 69.5543 111.892 78.9415 118.813 85.8628C125.734 92.784 135.121 96.6723 144.909 96.6723H151.921C161.71 96.6723 171.097 92.784 178.018 85.8628C184.939 78.9415 188.828 69.5543 188.828 59.7661C188.828 49.9255 184.918 40.488 177.96 33.5296C171.002 26.5713 161.564 22.6621 151.724 22.6621H151.702Z" fill="#263238"/>
<path d="M162.253 111.641C180.321 112.894 181.596 121.599 186.102 131.139C189.553 138.414 185.882 142.635 185.135 154.043C184.388 165.451 176.584 191.125 176.584 191.125C176.584 191.125 189.377 203.324 196.213 216.799C164.671 237.351 119.829 232.185 106.75 219.81C108.955 210.68 111.678 201.682 114.905 192.861C114.905 192.861 112.29 178.354 110.993 171.232C102.508 160.439 103.124 153.23 105.454 144.019C109.85 126.896 126.731 110.213 134.205 110.828L162.253 111.641Z" fill="#4F8FC0"/>
<path d="M166.077 18.3977L168.605 28.4211C169.271 28.2895 169.904 28.0237 170.465 27.64C171.025 27.2564 171.502 26.7628 171.866 26.1892C172.23 25.6156 172.473 24.974 172.581 24.3035C172.69 23.6329 172.66 22.9473 172.496 22.2884C172.128 20.9411 171.257 19.7864 170.063 19.0625C168.868 18.3386 167.442 18.1007 166.077 18.3977Z" fill="#263238"/>
<path d="M121.258 38.9939C116.993 41.5217 111.718 52.1825 112.246 74.779C112.685 93.8366 118.84 98.5625 121.983 99.9254C125.126 101.288 131.061 100.453 136.886 99.4858V110.916C136.886 110.916 128.841 120.28 129.347 125.511C129.852 130.743 140.975 132.106 148.492 126.874C156.01 121.643 160.846 111.597 160.846 111.597V86.8686C160.846 86.8686 164.78 91.5286 171.199 87.2643C177.617 82.9999 177.793 72.4271 174.144 68.6243C170.495 64.8216 162.34 66.0306 160.956 71.2841C160.956 71.2841 151.68 71.6138 139.304 64.8216C134.476 62.2398 130.326 58.5552 127.19 54.0674C124.054 49.5796 122.022 44.4151 121.258 38.9939Z" fill="#B16668"/>
<path d="M135.677 69.9873C135.663 70.302 135.711 70.6163 135.818 70.9126C135.925 71.2088 136.089 71.481 136.301 71.7137C136.514 71.9464 136.77 72.135 137.055 72.2687C137.34 72.4024 137.649 72.4787 137.963 72.4932C138.278 72.5076 138.593 72.4599 138.889 72.3528C139.185 72.2457 139.457 72.0814 139.69 71.8691C139.923 71.6568 140.111 71.4008 140.245 71.1156C140.379 70.8304 140.455 70.5217 140.469 70.2071C140.518 69.5725 140.315 68.9442 139.903 68.4586C139.492 67.9731 138.905 67.6693 138.271 67.6134C137.944 67.5956 137.617 67.6433 137.309 67.7536C137 67.8638 136.717 68.0345 136.476 68.2556C136.234 68.4766 136.039 68.7436 135.902 69.041C135.765 69.3384 135.689 69.6601 135.677 69.9873Z" fill="#263238"/>
<path d="M132.908 86.1433L127.325 87.9238C127.426 88.2969 127.601 88.6458 127.839 88.9499C128.078 89.2539 128.375 89.5068 128.714 89.6935C129.052 89.8801 129.425 89.9967 129.809 90.0363C130.194 90.076 130.582 90.0378 130.952 89.9241C131.705 89.6721 132.331 89.1363 132.697 88.4304C133.062 87.7246 133.138 86.9042 132.908 86.1433Z" fill="#9A4A4D"/>
<path d="M116.004 62.6896L120.862 59.3265C120.658 59.0019 120.389 58.7221 120.073 58.5042C119.758 58.2863 119.401 58.1347 119.025 58.0587C118.649 57.9826 118.261 57.9837 117.886 58.0618C117.51 58.14 117.154 58.2935 116.84 58.5132C116.193 58.9708 115.746 59.6585 115.591 60.4352C115.436 61.2118 115.583 62.0185 116.004 62.6896Z" fill="#263238"/>
<path d="M117.125 68.2507C117.111 68.5654 117.159 68.8798 117.266 69.176C117.373 69.4722 117.537 69.7444 117.749 69.9771C117.962 70.2098 118.218 70.3984 118.503 70.5322C118.788 70.6659 119.097 70.7421 119.411 70.7566C119.726 70.771 120.041 70.7233 120.337 70.6162C120.633 70.5092 120.905 70.3448 121.138 70.1326C121.371 69.9203 121.559 69.6642 121.693 69.3791C121.827 69.0939 121.903 68.7852 121.917 68.4706C121.966 67.8359 121.763 67.2077 121.351 66.7221C120.94 66.2365 120.353 65.9328 119.719 65.8768C119.392 65.859 119.065 65.9067 118.757 66.017C118.448 66.1273 118.165 66.2979 117.924 66.519C117.682 66.74 117.487 67.0071 117.35 67.3044C117.213 67.6018 117.137 67.9235 117.125 68.2507Z" fill="#263238"/>
<path d="M128.841 66.866L128.468 81.3075L120.862 78.9555L128.841 66.866Z" fill="#9A4A4D"/>
<path d="M136.887 99.4858C143.019 98.6725 155.636 95.0896 157.615 90.0559C156.835 92.5801 155.301 94.8048 153.218 96.4304C149.46 99.6616 136.93 103.289 136.93 103.289L136.887 99.4858Z" fill="#9A4A4D"/>
<path d="M144.646 229.196C148.89 228.308 152.99 226.828 156.823 224.8C154.665 224.742 152.527 224.38 150.47 223.723C149.363 223.431 148.407 222.733 147.791 221.767C147.176 220.802 146.948 219.64 147.151 218.513C147.437 217.568 149.723 218.513 153.746 217.876C158.801 217.15 161.417 215.216 166.934 215.81C168.958 216.024 170.993 215.51 172.671 214.359C181.684 207.896 192.63 193.675 199.642 182.948L180.826 156.021C177.651 155.319 174.688 153.873 172.181 151.802C169.674 149.73 167.695 147.093 166.407 144.107C163.725 137.667 160.296 123.225 169.616 112.828C174.821 112.085 180.128 113.049 184.739 115.576C190.19 118.324 198.587 130.963 205.115 142.195C210.808 151.955 227.096 177.848 227.096 187.102C227.096 190.905 222.151 196.488 209.951 207.567C204.06 213.106 197.246 219.129 189.97 225.679C184.533 230.268 178.774 234.463 172.737 238.23C156.537 248.781 148.184 248.715 141.7 243.55C131.259 235.175 134.534 231.46 144.646 229.196Z" fill="#B16668"/>
<path d="M321.637 279.049C313.716 278.265 305.863 276.905 298.139 274.983C277.081 270.213 270.619 263.465 269.718 254.233C268.289 239.505 273.806 239.242 283.5 245.572C287.575 248.289 292.016 250.413 296.688 251.881C295.041 250.11 293.656 248.111 292.578 245.946C291.952 244.828 291.769 243.515 292.066 242.269C292.363 241.023 293.119 239.934 294.183 239.22C295.172 238.714 296.227 241.242 299.766 243.967C304.294 247.44 307.899 248.056 311.701 252.892C312.946 254.91 314.659 256.599 316.694 257.815C318.73 259.032 321.028 259.741 323.395 259.882" fill="#FFA8A7"/>
<path d="M408.242 310.834C413.848 328.99 416.859 359.566 417.782 384.053C418.486 403.022 418.332 417.354 418.332 417.354C418.332 417.354 423.739 410.76 436.906 409.001C448.951 407.374 487.572 411.199 487.572 411.199C487.572 411.199 506.454 420.739 495.002 433.884C484.187 436.214 460.03 442.918 446.775 447.072C436.114 450.369 413.276 456.942 406.352 456.854C396.219 456.854 386.415 453.908 378.832 440.236C371.248 426.564 359.247 371.523 359.247 371.523C359.247 371.523 326.561 428.564 322.758 435.005C321.767 441.232 321.465 447.549 321.857 453.842C322.763 465.715 321.397 477.651 317.834 489.012C314.054 500.398 309.504 518.225 306.558 531.304C304.162 541.899 302.514 547.284 302.272 553.153C302.03 559.022 288.512 546.317 279.785 537.568C279.785 537.568 280.796 447.644 282.335 431.685C283.874 415.727 285.368 398.912 296.777 374.996C308.185 351.081 316.208 323.649 320.318 312.197C324.429 300.744 408.242 310.834 408.242 310.834Z" fill="#FFA8A7"/>
<path d="M408.242 310.834C413.266 324.273 416.496 338.315 417.848 352.598C419.848 375.282 420.046 407.682 420.046 407.682C420.046 407.682 416.947 422.124 394.482 424.915C372.018 427.707 369.358 417.816 369.358 417.816L358.587 374.821L330.759 424.981C330.759 424.981 305.261 428.432 285.654 399.351C286.489 387.745 318.977 319.45 320.23 310.856L408.242 310.834Z" fill="#4F8FC0"/>
<path opacity="0.1" d="M358.587 374.821C349.578 371.019 341.698 364.963 335.705 357.236C335.705 357.236 338.123 371.897 345.179 378.711L330.759 424.871L358.587 374.821Z" fill="black"/>
<path d="M344.3 190.971C334.562 189.367 324.297 190.971 321.066 201.06C317.307 212.864 327.286 237.879 327.286 237.879L344.3 190.971Z" fill="#FFA8A7"/>
<path d="M395.625 193.389C401.121 195.829 414.595 204.577 411.342 224.998C407.869 246.693 403.714 283.423 403.714 283.423C403.297 290.172 407.121 298.041 409.078 310.922C396.548 324.55 333.353 340.091 319.395 312.109C319.395 312.109 318.472 253.969 323.11 223.239C325.945 204.555 330.364 191.015 348.432 190.597L379.073 188.817C384.706 189.888 390.242 191.417 395.625 193.389Z" fill="#4F8FC0"/>
<g opacity="0.5">
<path d="M395.625 193.389C401.121 195.829 414.595 204.577 411.342 224.998C407.869 246.693 403.714 283.423 403.714 283.423C403.297 290.172 407.121 298.041 409.078 310.922C396.548 324.55 333.353 340.091 319.395 312.109C319.395 312.109 318.472 253.969 323.11 223.239C325.945 204.555 330.364 191.015 348.432 190.597L379.073 188.817C384.706 189.888 390.242 191.417 395.625 193.389Z" fill="black"/>
</g>
<path d="M350.103 165.011C336.093 165.011 324.736 153.655 324.736 139.645C324.736 125.636 336.093 114.279 350.103 114.279C364.112 114.279 375.469 125.636 375.469 139.645C375.469 153.655 364.112 165.011 350.103 165.011Z" fill="#263238"/>
<path d="M391.603 154.79C391.603 154.79 387.712 173.078 386.151 176.068C385.11 177.925 383.394 179.31 381.359 179.936L381.623 167.078L391.603 154.79Z" fill="#263238"/>
<path d="M386.701 128.633C388.063 128.478 389.443 128.632 390.737 129.085C392.031 129.538 393.206 130.278 394.175 131.249C397.362 134.524 395.581 144.789 391.603 154.812L384.261 155.648L386.701 128.633Z" fill="#263238"/>
<path d="M382.063 155.647C383.536 156.527 385.624 153.691 387.448 151.801C389.273 149.91 395.164 147.405 398.131 153.537C401.099 159.67 395.515 168.243 390.855 169.693C382.832 172.221 381.623 167.078 381.623 167.078L381.03 196.027C374.106 203.742 350.454 201.896 354.916 195.257V186.465C351.342 187.035 347.716 187.219 344.102 187.014C338.189 186.113 334.474 181.453 332.694 175.057C329.814 164.814 328.715 156.527 331.155 136.348C333.837 114.213 359.554 113.993 373.446 122.742C387.338 131.49 382.063 155.647 382.063 155.647Z" fill="#FFA8A7"/>
<path d="M382.063 158.109C382.81 158.109 385.624 153.471 387.448 151.801C389.976 149.603 386.701 128.611 386.701 128.611C387.367 126.806 387.491 124.845 387.057 122.971C386.624 121.096 385.652 119.389 384.261 118.06C380.788 114.235 374.985 113.818 365.094 112.257C359.884 111.444 352.015 110.059 346.827 109.026C340.629 107.861 335.507 106.652 331.111 110.454C329.396 111.942 328.184 113.924 327.64 116.128C327.097 118.332 327.25 120.65 328.077 122.764C328.529 123.719 329.122 124.601 329.836 125.38C330.997 126.783 332.516 127.846 334.232 128.457C334.232 128.457 336.936 130.853 346.344 131.996C355.022 132.643 363.743 132.481 372.391 131.512C375.117 131.139 375.688 133.71 377.161 140.986C378.524 147.339 379.579 158.065 382.063 158.109Z" fill="#263238"/>
<path d="M354.938 186.443C354.938 186.443 368.127 183.783 372.721 181.343C375.423 179.925 377.637 177.727 379.073 175.035C378.383 177.728 377.157 180.255 375.469 182.465C372.105 186.861 354.938 188.817 354.938 188.817V186.443Z" fill="#F28F8F"/>
<path d="M358.103 152.35C358.095 152.703 358.156 153.055 358.285 153.383C358.413 153.712 358.606 154.012 358.851 154.266C359.097 154.52 359.39 154.722 359.715 154.861C360.039 155 360.388 155.073 360.741 155.076C361.29 155.098 361.832 154.955 362.299 154.666C362.765 154.377 363.135 153.954 363.359 153.453C363.583 152.952 363.652 152.395 363.557 151.855C363.462 151.314 363.207 150.814 362.825 150.42C362.444 150.025 361.953 149.754 361.415 149.642C360.878 149.529 360.319 149.58 359.811 149.787C359.303 149.995 358.869 150.35 358.564 150.807C358.26 151.264 358.099 151.801 358.103 152.35Z" fill="#263238"/>
<path d="M362.346 141.426L367.995 144.525C368.373 143.761 368.447 142.883 368.202 142.067C367.957 141.251 367.412 140.558 366.676 140.129C366.309 139.922 365.903 139.792 365.484 139.746C365.064 139.699 364.64 139.738 364.236 139.859C363.832 139.98 363.456 140.181 363.132 140.45C362.807 140.719 362.54 141.051 362.346 141.426Z" fill="#263238"/>
<path d="M356.125 170.595L350.103 172.793C350.231 173.199 350.44 173.574 350.718 173.897C350.996 174.219 351.336 174.482 351.718 174.669C352.101 174.856 352.517 174.963 352.942 174.985C353.367 175.006 353.792 174.941 354.191 174.793C354.992 174.477 355.641 173.865 356.001 173.082C356.362 172.3 356.406 171.409 356.125 170.595Z" fill="#F28F8F"/>
<path d="M333.88 143.734L339.024 139.777C338.784 139.439 338.479 139.152 338.126 138.933C337.773 138.715 337.38 138.57 336.97 138.506C336.56 138.443 336.142 138.462 335.739 138.564C335.337 138.665 334.959 138.846 334.628 139.096C333.927 139.622 333.458 140.399 333.319 141.264C333.179 142.129 333.381 143.014 333.88 143.734Z" fill="#263238"/>
<path d="M336.144 151.603C336.166 152.119 336.339 152.618 336.641 153.037C336.944 153.456 337.363 153.777 337.847 153.96C338.33 154.143 338.857 154.18 339.361 154.066C339.865 153.952 340.325 153.693 340.683 153.32C341.041 152.947 341.281 152.477 341.374 151.969C341.468 151.46 341.409 150.936 341.207 150.46C341.004 149.984 340.667 149.579 340.236 149.293C339.804 149.008 339.299 148.856 338.782 148.855C338.428 148.861 338.079 148.937 337.754 149.078C337.429 149.22 337.136 149.424 336.891 149.68C336.646 149.935 336.453 150.236 336.325 150.567C336.197 150.897 336.136 151.249 336.144 151.603Z" fill="#263238"/>
<path d="M349.201 149.471L348.893 165.495L339.42 163.407L349.201 149.471Z" fill="#F28F8F"/>
<path d="M507.817 404.165C509.32 401.869 511.525 400.119 514.103 399.176C516.763 398.318 525.489 398.758 529.314 404.825C533.139 410.892 533.051 418.233 535.381 422.805C538.114 427.443 541.606 431.589 545.712 435.071C549.537 438.654 553.691 448.589 551.427 457.733C550.888 459.957 549.745 461.988 548.123 463.602C546.502 465.216 544.465 466.349 542.239 466.877L507.817 404.165Z" fill="#F0F0F0"/>
<path d="M510.125 402.692C512.941 401.983 515.897 402.037 518.686 402.848C521.475 403.659 523.998 405.199 525.995 407.308C529.556 411.705 529.446 418.057 531.402 423.113C532.621 425.649 534.23 427.978 536.172 430.015C538.238 432.675 540.766 434.983 542.635 437.818C544.061 440.099 545.157 442.571 545.888 445.16C546.775 448.003 547.169 450.976 547.053 453.952C546.892 456.281 546.217 458.546 545.077 460.583C543.937 462.62 542.36 464.379 540.458 465.734C536.502 468.438 531.073 468.899 528.061 464.591C527.056 462.965 526.216 461.242 525.555 459.447C524.303 455.99 522.4 452.804 519.95 450.062C517.598 447.864 515.554 445.116 513.048 443.16C512.652 442.852 512.257 442.5 511.839 442.236C507.267 439.225 502.541 436.565 502.101 434.741C501.662 432.916 501.288 411.837 501.288 411.837C503.706 411.243 506.212 403.923 510.125 402.692Z" fill="#263238"/>
<path d="M544.415 441.159C540.481 441.164 536.629 442.292 533.315 444.413C527.402 448.039 524.522 452.48 524.149 456.634C524.149 456.634 524.984 463.075 527.182 465.58C529.38 468.086 533.776 470.9 542.239 466.877C542.239 466.877 553.625 456.964 544.415 441.159Z" fill="#FAFAFA"/>
<path d="M477.878 410.298L505.816 411.771C507.626 411.729 509.422 412.097 511.07 412.848C514.521 414.189 518.939 424.102 515.246 426.74C514.668 427.053 514.185 427.516 513.848 428.081C513.512 428.646 513.334 429.291 513.334 429.949C511.136 428.63 507.179 430.345 504.893 431.927C503.968 432.512 503.293 433.422 503.003 434.477C501.713 434.3 500.414 434.19 499.112 434.147C495.112 434.405 491.133 434.919 487.198 435.686L477.878 410.298Z" fill="#FFA8A7"/>
<path d="M306.03 578.233C307.371 578.563 307.481 583.75 306.954 585.245C305.697 587.958 303.758 590.298 301.326 592.037C297.88 594.611 295.08 597.953 293.15 601.797C289.733 607.745 285.06 612.877 279.455 616.832C275.735 619.09 271.584 620.544 267.268 621.1C262.952 621.657 258.568 621.304 254.397 620.063C245.473 617.623 244.44 615.315 244.374 611.952L306.03 578.233Z" fill="#F0F0F0"/>
<path d="M278.181 559.945C276.752 563.55 272.092 578.783 262.97 586.212C255.716 592.103 245.912 598.83 243.187 605.71C240.461 612.59 255.738 616.173 262.222 615.403C269.784 614.502 279.697 610.809 285.324 604.633C289.303 600.236 291.919 595.027 294.798 591.598C297.678 588.169 303.964 584.52 305.635 580.453C306.558 578.255 305.899 573.178 305.041 568.913C304.228 565.001 303.371 560.67 302.03 560.978C302.03 561.44 301.898 563.352 301.898 563.352C300.162 565.023 278.181 559.945 278.181 559.945Z" fill="#263238"/>
<path d="M275.521 567.045C276.686 563.572 277.895 560.055 278.378 557.725C279.137 553.45 279.541 549.12 279.587 544.778C279.917 536.513 279.983 517.544 279.983 517.544L306.03 531.172C305.371 536.271 304.14 540.338 303.063 546.559C302.401 550.075 302.047 553.642 302.008 557.219C302.008 558.67 302.008 561.506 302.008 562.934C302.008 563.902 301.326 564.297 300.711 564.913C299.742 565.962 298.994 567.195 298.513 568.54C298.29 569.29 297.807 569.937 297.15 570.364C296.591 570.552 295.994 570.597 295.414 570.496C293.677 570.496 291.017 570.078 290.138 572.013C290.037 571.121 289.754 570.26 289.308 569.481C288.862 568.703 288.262 568.023 287.544 567.485C284.907 565.462 277.631 561.989 275.521 567.045Z" fill="#FFA8A7"/>
<path d="M278.664 609.864C278.664 609.864 275.653 597.928 264.2 593.686C252.748 589.444 249.077 594.543 247.473 595.884C245.868 597.225 238.065 604.676 244.373 611.93C244.373 611.952 261.607 623.8 278.664 609.864Z" fill="#FAFAFA"/>
<path d="M367.204 324.55C371.958 323.545 376.546 321.872 380.832 319.582C378.413 319.52 376.014 319.113 373.71 318.373C372.469 318.055 371.396 317.275 370.709 316.193C370.023 315.11 369.776 313.807 370.017 312.548C370.325 311.493 372.875 312.548 377.293 311.845C382.942 311.032 385.888 308.877 392.02 309.515C394.3 309.773 396.597 309.195 398.483 307.888C408.572 300.656 420.794 284.764 428.641 272.719L407.605 242.626C404.057 241.839 400.747 240.221 397.946 237.905C395.145 235.59 392.933 232.643 391.493 229.306C388.481 222.096 385.228 204.973 395.625 193.345C401.339 193.218 406.983 194.614 411.979 197.389C418.09 200.489 427.366 214.623 434.773 227.152C441.126 238.142 459.282 267.025 459.282 277.357C459.282 281.599 453.743 287.863 440.115 300.239C433.521 306.416 425.915 313.186 417.782 320.483C411.705 325.626 405.262 330.32 398.505 334.529C380.414 346.311 371.05 346.245 363.797 340.464C352.235 331.254 355.883 327.1 367.204 324.55Z" fill="#FFA8A7"/>
</svg>
